<svg xmlns="http://www.w3.org/2000/svg" viewBox="0 0 752 535"><defs><style>.cls-1{fill:rgba(47, 102, 245, 0.6);}.cls-2{fill:none;stroke:#333;stroke-miterlimit:10;stroke-width:10px;}</style></defs><title>CarLogo</title><g id="Layer_2_copy" data-name="Layer 2 copy"><path class="cls-1" d="M643.23,236.81C574,241.23,559.16,216.87,457.14,98.57a18.3,18.3,0,0,0-13.87-6.36H209.66S145.53,84.54,104.83,203.5a115,115,0,0,0-6.17,37.23v126a18.5,18.5,0,0,0,18.5,18.5h40.52a64,64,0,1,0,126.14,0H532.74a64,64,0,1,0,126.14,0h26.31a19.53,19.53,0,0,0,19.54-19.53V293.8S706.66,235.21,643.23,236.81Z"/></g><g id="Layer_2" data-name="Layer 2"><path class="cls-2" d="M633.24,370h26.3a19.54,19.54,0,0,0,19.54-19.54V278.59s1.92-58.59-61.5-57C548.31,226,533.51,201.66,431.49,83.35A18.34,18.34,0,0,0,417.61,77H184S119.88,69.32,79.18,188.29A115,115,0,0,0,73,225.51v126A18.5,18.5,0,0,0,91.5,370H132"/><line class="cls-2" x1="258.18" y1="370" x2="507.07" y2="370"/><circle class="cls-2" cx="195.09" cy="380.64" r="63.97"/><circle class="cls-2" cx="570.15" cy="380.64" r="63.97"/><polyline class="cls-2" points="303.67 82 303.67 202.67 542.2 202.67 75.29 202.67"/></g></svg>